<?xml version="1.0" encoding="UTF-8" standalone="no"?>
<svg
      width="100"
      height="80"
      viewBox="0 0 100 80"
      class="css-1j8o68f"
      xmlns="http://www.w3.org/2000/svg"
    >
      <defs id="SvgjsDefs2380"></defs>
      <g
        id="SvgjsG2381"
        featurekey="nRdZyp-0"
        transform="matrix(1.1731926394854035,0,0,1.1731926394854035,-10.821528879761114,-13.071712621865853)"
        fill="#319795"
      >
        <g xmlns="http://www.w3.org/2000/svg">
          <g>
            <path d="M22.958,79.083h57.658 M82.941,79.331c1.234,0,2.324-1,2.324-2.238V52.198c0.93,0.211,1.283,0.334,1.957,0.334    c3.905,0,6.816-4.028,7.014-6.667l0.113-1.245h-0.098c0.005,0,0.014-0.231-0.025-0.359c-0.06-0.19-0.177-0.321-0.312-0.444    L84.18,11.924c-0.143-0.469-0.576-0.782-1.068-0.782H20.464c-0.493,0-0.929,0.324-1.071,0.797l-9.59,31.799    c-0.224,0.151-0.399,0.336-0.479,0.603c-0.03,0.107-0.018,0.279-0.018,0.279H9.224l0.091,1.246    c0.199,2.638,3.128,6.646,7.035,6.646c0.674,0,1.028-0.104,1.958-0.313v24.895c0,1.238,1.091,2.238,2.326,2.238 M70.611,44.62    l-4.199-31.618h6.708l6.993,31.618H70.611z M47.05,44.62l1.389-31.618h6.446l1.327,31.618H47.05z M23.523,44.62l6.919-31.618    h6.751L32.911,44.62H23.523z M22.957,72.521V49.557c0.93,1.638,3.045,2.978,5.306,2.978c2.572,0,4.634-1.735,5.849-3.668    c1.213,1.933,3.308,3.668,5.881,3.668c2.572,0,4.684-1.735,5.896-3.668c1.213,1.933,3.332,3.668,5.906,3.668    c2.572,0,4.696-1.735,5.91-3.668c1.212,1.933,3.337,3.668,5.908,3.668c2.574,0,4.699-1.735,5.914-3.668    c1.213,1.933,3.209,3.668,5.783,3.668c2.262,0,4.373-1.34,5.303-2.978v22.964H22.957L22.957,72.521z"></path>
          </g>
        </g>
        <path
          xmlns="http://www.w3.org/2000/svg"
          d="M73,71.125C73,74.37,70.37,77,67.125,77l0,0c-3.245,0-5.875-2.63-5.875-5.875v-7.75c0-3.245,2.63-5.875,5.875-5.875l0,0  C70.37,57.5,73,60.13,73,63.375V71.125z"
        ></path>
        <path
          xmlns="http://www.w3.org/2000/svg"
          d="M58,71.125C58,74.37,55.37,77,52.125,77l0,0c-3.245,0-5.875-2.63-5.875-5.875v-7.75c0-3.245,2.63-5.875,5.875-5.875l0,0  C55.37,57.5,58,60.13,58,63.375V71.125z"
        ></path>
        <path
          xmlns="http://www.w3.org/2000/svg"
          d="M43,71.125C43,74.37,40.37,77,37.125,77l0,0c-3.245,0-5.875-2.63-5.875-5.875v-7.75c0-3.245,2.63-5.875,5.875-5.875l0,0  C40.37,57.5,43,60.13,43,63.375V71.125z"
        ></path>
      </g>
    </svg>