<?xml version="1.0" encoding="UTF-8" standalone="no"?>
<svg width="293.5208527251438" height="80" viewBox="0 0 293.5208527251438 80" class="css-1j8o68f" xmlns="http://www.w3.org/2000/svg">
    <defs id="SvgjsDefs2380"></defs>
    <g id="SvgjsG2381" featurekey="nRdZyp-0" transform="matrix(1.1731926394854035,0,0,1.1731926394854035,-10.821528879761114,-13.071712621865853)" fill="#4FD1C5">
        <g xmlns="http://www.w3.org/2000/svg"><g>
        <path d="M22.958,79.083h57.658 M82.941,79.331c1.234,0,2.324-1,2.324-2.238V52.198c0.93,0.211,1.283,0.334,1.957,0.334    c3.905,0,6.816-4.028,7.014-6.667l0.113-1.245h-0.098c0.005,0,0.014-0.231-0.025-0.359c-0.06-0.19-0.177-0.321-0.312-0.444    L84.18,11.924c-0.143-0.469-0.576-0.782-1.068-0.782H20.464c-0.493,0-0.929,0.324-1.071,0.797l-9.59,31.799    c-0.224,0.151-0.399,0.336-0.479,0.603c-0.03,0.107-0.018,0.279-0.018,0.279H9.224l0.091,1.246    c0.199,2.638,3.128,6.646,7.035,6.646c0.674,0,1.028-0.104,1.958-0.313v24.895c0,1.238,1.091,2.238,2.326,2.238 M70.611,44.62    l-4.199-31.618h6.708l6.993,31.618H70.611z M47.05,44.62l1.389-31.618h6.446l1.327,31.618H47.05z M23.523,44.62l6.919-31.618    h6.751L32.911,44.62H23.523z M22.957,72.521V49.557c0.93,1.638,3.045,2.978,5.306,2.978c2.572,0,4.634-1.735,5.849-3.668    c1.213,1.933,3.308,3.668,5.881,3.668c2.572,0,4.684-1.735,5.896-3.668c1.213,1.933,3.332,3.668,5.906,3.668    c2.572,0,4.696-1.735,5.91-3.668c1.212,1.933,3.337,3.668,5.908,3.668c2.574,0,4.699-1.735,5.914-3.668    c1.213,1.933,3.209,3.668,5.783,3.668c2.262,0,4.373-1.34,5.303-2.978v22.964H22.957L22.957,72.521z"></path></g></g>
        <path xmlns="http://www.w3.org/2000/svg" d="M73,71.125C73,74.37,70.37,77,67.125,77l0,0c-3.245,0-5.875-2.63-5.875-5.875v-7.75c0-3.245,2.63-5.875,5.875-5.875l0,0  C70.37,57.5,73,60.13,73,63.375V71.125z"></path>
        <path xmlns="http://www.w3.org/2000/svg" d="M58,71.125C58,74.37,55.37,77,52.125,77l0,0c-3.245,0-5.875-2.63-5.875-5.875v-7.75c0-3.245,2.63-5.875,5.875-5.875l0,0  C55.37,57.5,58,60.13,58,63.375V71.125z"></path>
        <path xmlns="http://www.w3.org/2000/svg" d="M43,71.125C43,74.37,40.37,77,37.125,77l0,0c-3.245,0-5.875-2.63-5.875-5.875v-7.75c0-3.245,2.63-5.875,5.875-5.875l0,0  C40.37,57.5,43,60.13,43,63.375V71.125z"></path>
    </g>
    <g id="SvgjsG2382" featurekey="Q4qmbg-0" transform="matrix(4.495912713076044,0,0,4.495912713076044,120.41416911841516,-17.63759960959121)" fill="#4FD1C5">
        <path d="M6.22 9.98 c2.9 0 4.82 2.18 4.82 5.1 s-2.12 5.08 -5.02 5.08 c-0.64 0 -1.72 -0.36 -2.04 -0.82 l0 0.66 l-2.96 0 l0 -14.52 l2.96 0 l0 5.34 c0.34 -0.5 1.62 -0.84 2.24 -0.84 z M5.82 17.92 c1.24 0 2.26 -1.28 2.26 -2.84 c0 -1.58 -1.02 -2.86 -2.26 -2.86 c-1.36 0 -2.24 1.54 -2.24 2.86 s0.9 2.84 2.24 2.84 z M14.767708333333331 13.04 l-2.2 -1.26 c1.1 -1.24 2.58 -1.82 4.12 -1.82 c2.96 0 4.16 1.62 4.16 3.14 l0 6.9 l-2.96 0 l0 -0.7 c-0.46 0.48 -1.28 0.84 -2.2 0.84 c-2.7 0 -3.74 -1.2 -3.74 -3.04 c0 -2.08 1.68 -3.48 4.4 -3.48 l1.54 0 c0 -0.74 -0.56 -1.22 -1.4 -1.22 c-0.86 0 -1.28 0.16 -1.72 0.64 z M17.887708333333332 16.740000000000002 l0 -0.88 l-1.74 0 c-0.78 0 -1.36 0.54 -1.24 1.3 c0.08 0.54 0.56 0.76 1.24 0.76 c1.3 0 1.74 -0.74 1.74 -1.18 z M30.01541666666666 10.12 l0 2.18 l-4.06 5.26 l4.06 0 l0 2.44 l-7.52 0 l0 -2.28 l4.04 -5.16 l-4.04 0 l0 -2.44 l7.52 0 z M38.503125 10.26 l-0.4 2.22 c-0.74 -0.32 -0.88 -0.26 -1.22 -0.26 c-1.2 0 -1.9 0.64 -1.9 2.22 l0 5.56 l-2.96 0 l0 -9.88 l2.96 0 l0 0.88 c0.38 -0.68 1.42 -1.02 2.08 -1.02 c0.62 0 0.98 0.02 1.44 0.28 z"></path>
    </g>
</svg>